<?xml version="1.0" encoding="utf-8"?>
<!-- Generated by Mocodo 4.1.2 -->
<svg width="298" height="506" viewBox="0 0 298 506" xmlns="http://www.w3.org/2000/svg">
<rect x="0" y="0" width="298" height="506" fill="#ffffff" stroke="none" stroke-width="0"/>

<!-- Association FAVORIS -->
<g>
	<line x1="56" y1="278" x2="56" y2="177" stroke="#d6604d" stroke-width="2"/>
	<line x1="56" y1="68" x2="56" y2="177" stroke="#d6604d" stroke-width="2"/>
	<g>
		<path d="M77 152 a14 14 90 0 1 14 14 V177 h-70 V166 a14 14 90 0 1 14 -14" fill="#f4a582" stroke="#f4a582" stroke-width="0"/>
		<path d="M91 177 v11 a14 14 90 0 1 -14 14 H35 a14 14 90 0 1 -14 -14 V177 H70" fill="#fddbc7" stroke="#fddbc7" stroke-width="0"/>
		<rect x="21" y="152" width="70" height="50" fill="none" rx="14" stroke="#d6604d" stroke-width="2"/>
		<line x1="21" y1="177" x2="91" y2="177" stroke="#d6604d" stroke-width="1"/>
		<text x="29" y="169.75" fill="#000000" font-family="Verdana" font-size="12">FAVORIS</text>
	</g>
	<text x="61" y="219" fill="#4d4d4d" font-family="Verdana" font-size="12">0,N</text>
	<text x="61" y="144" fill="#4d4d4d" font-family="Verdana" font-size="12">0,N</text>
</g>

<!-- Association ETRE -->
<g>
	<line x1="262" y1="278" x2="180" y2="278" stroke="#d6604d" stroke-width="2"/>
	<line x1="56" y1="278" x2="180" y2="278" stroke="#d6604d" stroke-width="2"/>
	<g>
		<path d="M189 253 a14 14 90 0 1 14 14 V278 h-46 V267 a14 14 90 0 1 14 -14" fill="#f4a582" stroke="#f4a582" stroke-width="0"/>
		<path d="M203 278 v11 a14 14 90 0 1 -14 14 H171 a14 14 90 0 1 -14 -14 V278 H46" fill="#fddbc7" stroke="#fddbc7" stroke-width="0"/>
		<rect x="157" y="253" width="46" height="50" fill="none" rx="14" stroke="#d6604d" stroke-width="2"/>
		<line x1="157" y1="278" x2="203" y2="278" stroke="#d6604d" stroke-width="1"/>
		<text x="164" y="270.75" fill="#000000" font-family="Verdana" font-size="12">ETRE</text>
	</g>
	<text x="209" y="295" fill="#4d4d4d" font-family="Verdana" font-size="12">1,1</text>
	<text x="106" y="270" fill="#4d4d4d" font-family="Verdana" font-size="12">1,N</text>
</g>

<!-- Association COMPOSER -->
<g>
	<line x1="56" y1="463" x2="56" y2="379" stroke="#d6604d" stroke-width="2"/>
	<line x1="56" y1="278" x2="56" y2="379" stroke="#d6604d" stroke-width="2"/>
	<g>
		<path d="M84 354 a14 14 90 0 1 14 14 V379 h-84 V368 a14 14 90 0 1 14 -14" fill="#f4a582" stroke="#f4a582" stroke-width="0"/>
		<path d="M98 379 v11 a14 14 90 0 1 -14 14 H28 a14 14 90 0 1 -14 -14 V379 H84" fill="#fddbc7" stroke="#fddbc7" stroke-width="0"/>
		<rect x="14" y="354" width="84" height="50" fill="none" rx="14" stroke="#d6604d" stroke-width="2"/>
		<line x1="14" y1="379" x2="98" y2="379" stroke="#d6604d" stroke-width="1"/>
		<text x="21" y="371.75" fill="#000000" font-family="Verdana" font-size="12">COMPOSER</text>
	</g>
	<text x="29" y="421" fill="#4d4d4d" font-family="Verdana" font-size="12">1,N</text>
	<text x="30" y="346" fill="#4d4d4d" font-family="Verdana" font-size="12">1,1</text>
</g>

<!-- Association INTERPRETER -->
<g>
	<line x1="56" y1="463" x2="180" y2="379" stroke="#d6604d" stroke-width="2"/>
	<line x1="56" y1="278" x2="180" y2="379" stroke="#d6604d" stroke-width="2"/>
	<g>
		<path d="M216 354 a14 14 90 0 1 14 14 V379 h-100 V368 a14 14 90 0 1 14 -14" fill="#f4a582" stroke="#f4a582" stroke-width="0"/>
		<path d="M230 379 v11 a14 14 90 0 1 -14 14 H144 a14 14 90 0 1 -14 -14 V379 H100" fill="#fddbc7" stroke="#fddbc7" stroke-width="0"/>
		<rect x="130" y="354" width="100" height="50" fill="none" rx="14" stroke="#d6604d" stroke-width="2"/>
		<line x1="130" y1="379" x2="230" y2="379" stroke="#d6604d" stroke-width="1"/>
		<text x="138" y="371.75" fill="#000000" font-family="Verdana" font-size="12">INTERPRETER</text>
	</g>
	<text x="97" y="450.43" fill="#4d4d4d" font-family="Verdana" font-size="12">1,N</text>
	<text x="106" y="312.71" fill="#4d4d4d" font-family="Verdana" font-size="12">1,1</text>
</g>

<!-- Entity UTILISATEUR -->
<g>
	<g>
		<rect x="9" y="9" width="94" height="25" fill="#bababa" stroke="none" stroke-width="0" opacity="1"/>
		<rect x="9" y="34" width="94" height="93" fill="#e0e0e0" stroke="none" stroke-width="0" opacity="1"/>
		<rect x="9" y="9" width="94" height="118" fill="none" stroke="#878787" stroke-width="2" opacity="1"/>
		<line x1="9" y1="34" x2="103" y2="34" stroke="#878787" stroke-width="1"/>
	</g>
	<text x="15" y="26.75" fill="#000000" font-family="Verdana" font-size="12">UTILISATEUR</text>
	<text x="14" y="51.8" fill="#000000" font-family="Verdana" font-size="12">idU</text>
	<line x1="14" y1="54" x2="35" y2="54" stroke="#000000" stroke-width="1"/>
	<text x="14" y="68.8" fill="#000000" font-family="Verdana" font-size="12">isAdmin</text>
	<text x="14" y="85.8" fill="#000000" font-family="Verdana" font-size="12">pseudo</text>
	<text x="14" y="102.8" fill="#000000" font-family="Verdana" font-size="12">mdp</text>
	<text x="14" y="119.8" fill="#000000" font-family="Verdana" font-size="12">adresseMail</text>
</g>

<!-- Entity MUSIQUES -->
<g>
	<g>
		<rect x="11" y="227" width="90" height="25" fill="#bababa" stroke="none" stroke-width="0" opacity="1"/>
		<rect x="11" y="252" width="90" height="77" fill="#e0e0e0" stroke="none" stroke-width="0" opacity="1"/>
		<rect x="11" y="227" width="90" height="102" fill="none" stroke="#878787" stroke-width="2" opacity="1"/>
		<line x1="11" y1="252" x2="101" y2="252" stroke="#878787" stroke-width="1"/>
	</g>
	<text x="23" y="244.75" fill="#000000" font-family="Verdana" font-size="12">MUSIQUES</text>
	<text x="16" y="269.8" fill="#000000" font-family="Verdana" font-size="12">idM</text>
	<line x1="16" y1="272" x2="38" y2="272" stroke="#000000" stroke-width="1"/>
	<text x="16" y="286.8" fill="#000000" font-family="Verdana" font-size="12">img</text>
	<text x="16" y="303.8" fill="#000000" font-family="Verdana" font-size="12">dateDeSortie</text>
	<text x="16" y="320.8" fill="#000000" font-family="Verdana" font-size="12">titre</text>
</g>

<!-- Entity GENRE -->
<g>
	<g>
		<rect x="235" y="244" width="54" height="25" fill="#bababa" stroke="none" stroke-width="0" opacity="1"/>
		<rect x="235" y="269" width="54" height="43" fill="#e0e0e0" stroke="none" stroke-width="0" opacity="1"/>
		<rect x="235" y="244" width="54" height="68" fill="none" stroke="#878787" stroke-width="2" opacity="1"/>
		<line x1="235" y1="269" x2="289" y2="269" stroke="#878787" stroke-width="1"/>
	</g>
	<text x="241" y="261.75" fill="#000000" font-family="Verdana" font-size="12">GENRE</text>
	<text x="240" y="286.8" fill="#000000" font-family="Verdana" font-size="12">idG</text>
	<line x1="240" y1="289" x2="261" y2="289" stroke="#000000" stroke-width="1"/>
	<text x="240" y="303.8" fill="#000000" font-family="Verdana" font-size="12">nomG</text>
</g>

<!-- Entity ARTISTES -->
<g>
	<g>
		<rect x="20" y="429" width="72" height="25" fill="#bababa" stroke="none" stroke-width="0" opacity="1"/>
		<rect x="20" y="454" width="72" height="43" fill="#e0e0e0" stroke="none" stroke-width="0" opacity="1"/>
		<rect x="20" y="429" width="72" height="68" fill="none" stroke="#878787" stroke-width="2" opacity="1"/>
		<line x1="20" y1="454" x2="92" y2="454" stroke="#878787" stroke-width="1"/>
	</g>
	<text x="26" y="446.75" fill="#000000" font-family="Verdana" font-size="12">ARTISTES</text>
	<text x="25" y="471.8" fill="#000000" font-family="Verdana" font-size="12">idA</text>
	<line x1="25" y1="474" x2="45" y2="474" stroke="#000000" stroke-width="1"/>
	<text x="25" y="488.8" fill="#000000" font-family="Verdana" font-size="12">nomA</text>
</g>
</svg>