<?xml version="1.0" encoding="utf-8"?>
<!-- Generated by Mocodo 4.1.2 -->
<svg width="296" height="288" viewBox="0 0 296 288" xmlns="http://www.w3.org/2000/svg">
<rect x="0" y="0" width="296" height="288" fill="#ffffff" stroke="none" stroke-width="0"/>

<!-- Association ETRE -->
<g>
	<line x1="260" y1="60" x2="178" y2="60" stroke="#d6604d" stroke-width="2"/>
	<line x1="54" y1="60" x2="178" y2="60" stroke="#d6604d" stroke-width="2"/>
	<g>
		<path d="M187 35 a14 14 90 0 1 14 14 V60 h-46 V49 a14 14 90 0 1 14 -14" fill="#f4a582" stroke="#f4a582" stroke-width="0"/>
		<path d="M201 60 v11 a14 14 90 0 1 -14 14 H169 a14 14 90 0 1 -14 -14 V60 H46" fill="#fddbc7" stroke="#fddbc7" stroke-width="0"/>
		<rect x="155" y="35" width="46" height="50" fill="none" rx="14" stroke="#d6604d" stroke-width="2"/>
		<line x1="155" y1="60" x2="201" y2="60" stroke="#d6604d" stroke-width="1"/>
		<text x="162" y="52.75" fill="#000000" font-family="Verdana" font-size="12">ETRE</text>
	</g>
	<text x="207" y="77" fill="#4d4d4d" font-family="Verdana" font-size="12">1,1</text>
	<text x="104" y="52" fill="#4d4d4d" font-family="Verdana" font-size="12">1,N</text>
</g>

<!-- Association COMPOSER -->
<g>
	<line x1="54" y1="245" x2="54" y2="161" stroke="#d6604d" stroke-width="2"/>
	<line x1="54" y1="60" x2="54" y2="161" stroke="#d6604d" stroke-width="2"/>
	<g>
		<path d="M82 136 a14 14 90 0 1 14 14 V161 h-84 V150 a14 14 90 0 1 14 -14" fill="#f4a582" stroke="#f4a582" stroke-width="0"/>
		<path d="M96 161 v11 a14 14 90 0 1 -14 14 H26 a14 14 90 0 1 -14 -14 V161 H84" fill="#fddbc7" stroke="#fddbc7" stroke-width="0"/>
		<rect x="12" y="136" width="84" height="50" fill="none" rx="14" stroke="#d6604d" stroke-width="2"/>
		<line x1="12" y1="161" x2="96" y2="161" stroke="#d6604d" stroke-width="1"/>
		<text x="19" y="153.75" fill="#000000" font-family="Verdana" font-size="12">COMPOSER</text>
	</g>
	<text x="27" y="203" fill="#4d4d4d" font-family="Verdana" font-size="12">1,N</text>
	<text x="28" y="128" fill="#4d4d4d" font-family="Verdana" font-size="12">1,1</text>
</g>

<!-- Association INTERPRETER -->
<g>
	<line x1="54" y1="245" x2="178" y2="161" stroke="#d6604d" stroke-width="2"/>
	<line x1="54" y1="60" x2="178" y2="161" stroke="#d6604d" stroke-width="2"/>
	<g>
		<path d="M214 136 a14 14 90 0 1 14 14 V161 h-100 V150 a14 14 90 0 1 14 -14" fill="#f4a582" stroke="#f4a582" stroke-width="0"/>
		<path d="M228 161 v11 a14 14 90 0 1 -14 14 H142 a14 14 90 0 1 -14 -14 V161 H100" fill="#fddbc7" stroke="#fddbc7" stroke-width="0"/>
		<rect x="128" y="136" width="100" height="50" fill="none" rx="14" stroke="#d6604d" stroke-width="2"/>
		<line x1="128" y1="161" x2="228" y2="161" stroke="#d6604d" stroke-width="1"/>
		<text x="136" y="153.75" fill="#000000" font-family="Verdana" font-size="12">INTERPRETER</text>
	</g>
	<text x="95" y="232.43" fill="#4d4d4d" font-family="Verdana" font-size="12">1,N</text>
	<text x="104" y="94.71" fill="#4d4d4d" font-family="Verdana" font-size="12">1,1</text>
</g>

<!-- Entity MUSIQUES -->
<g>
	<g>
		<rect x="9" y="9" width="90" height="25" fill="#bababa" stroke="none" stroke-width="0" opacity="1"/>
		<rect x="9" y="34" width="90" height="77" fill="#e0e0e0" stroke="none" stroke-width="0" opacity="1"/>
		<rect x="9" y="9" width="90" height="102" fill="none" stroke="#878787" stroke-width="2" opacity="1"/>
		<line x1="9" y1="34" x2="99" y2="34" stroke="#878787" stroke-width="1"/>
	</g>
	<text x="21" y="26.75" fill="#000000" font-family="Verdana" font-size="12">MUSIQUES</text>
	<text x="14" y="51.8" fill="#000000" font-family="Verdana" font-size="12">idM</text>
	<line x1="14" y1="54" x2="36" y2="54" stroke="#000000" stroke-width="1"/>
	<text x="14" y="68.8" fill="#000000" font-family="Verdana" font-size="12">img</text>
	<text x="14" y="85.8" fill="#000000" font-family="Verdana" font-size="12">dateDeSortie</text>
	<text x="14" y="102.8" fill="#000000" font-family="Verdana" font-size="12">titre</text>
</g>

<!-- Entity GENRE -->
<g>
	<g>
		<rect x="233" y="26" width="54" height="25" fill="#bababa" stroke="none" stroke-width="0" opacity="1"/>
		<rect x="233" y="51" width="54" height="43" fill="#e0e0e0" stroke="none" stroke-width="0" opacity="1"/>
		<rect x="233" y="26" width="54" height="68" fill="none" stroke="#878787" stroke-width="2" opacity="1"/>
		<line x1="233" y1="51" x2="287" y2="51" stroke="#878787" stroke-width="1"/>
	</g>
	<text x="239" y="43.75" fill="#000000" font-family="Verdana" font-size="12">GENRE</text>
	<text x="238" y="68.8" fill="#000000" font-family="Verdana" font-size="12">idG</text>
	<line x1="238" y1="71" x2="259" y2="71" stroke="#000000" stroke-width="1"/>
	<text x="238" y="85.8" fill="#000000" font-family="Verdana" font-size="12">nomG</text>
</g>

<!-- Entity ARTISTES -->
<g>
	<g>
		<rect x="18" y="211" width="72" height="25" fill="#bababa" stroke="none" stroke-width="0" opacity="1"/>
		<rect x="18" y="236" width="72" height="43" fill="#e0e0e0" stroke="none" stroke-width="0" opacity="1"/>
		<rect x="18" y="211" width="72" height="68" fill="none" stroke="#878787" stroke-width="2" opacity="1"/>
		<line x1="18" y1="236" x2="90" y2="236" stroke="#878787" stroke-width="1"/>
	</g>
	<text x="24" y="228.75" fill="#000000" font-family="Verdana" font-size="12">ARTISTES</text>
	<text x="23" y="253.8" fill="#000000" font-family="Verdana" font-size="12">idA</text>
	<line x1="23" y1="256" x2="43" y2="256" stroke="#000000" stroke-width="1"/>
	<text x="23" y="270.8" fill="#000000" font-family="Verdana" font-size="12">nomA</text>
</g>
</svg>