<?xml version="1.0" encoding="utf-8"?>
<!-- Generated by Mocodo 4.2.1 -->
<svg width="379" height="506" viewBox="0 0 379 506" xmlns="http://www.w3.org/2000/svg">
<rect x="0" y="0" width="379" height="506" fill="#ffffff" stroke="none" stroke-width="0"/>

<!-- Association NOTE -->
<g>
	<line x1="124" y1="278" x2="33" y2="177" stroke="#d6604d" stroke-width="2"/>
	<line x1="124" y1="68" x2="33" y2="177" stroke="#d6604d" stroke-width="2"/>
	<g>
		<path d="M43 152 a14 14 90 0 1 14 14 V177 h-48 V166 a14 14 90 0 1 14 -14" fill="#f4a582" stroke="#f4a582" stroke-width="0"/>
		<path d="M57 177 v11 a14 14 90 0 1 -14 14 H23 a14 14 90 0 1 -14 -14 V177 H48" fill="#fddbc7" stroke="#fddbc7" stroke-width="0"/>
		<rect x="9" y="152" width="48" height="50" fill="none" rx="14" stroke="#d6604d" stroke-width="2"/>
		<line x1="9" y1="177" x2="57" y2="177" stroke="#d6604d" stroke-width="1"/>
		<text x="16" y="169.75" fill="#000000" font-family="Verdana" font-size="12">NOTE</text>
	</g>
	<text x="52" y="238.5" fill="#4d4d4d" font-family="Verdana" font-size="12">0,N</text>
	<text x="50" y="122.47" fill="#4d4d4d" font-family="Verdana" font-size="12">0,N</text>
</g>

<!-- Association FAVORIS -->
<g>
	<line x1="124" y1="278" x2="124" y2="177" stroke="#d6604d" stroke-width="2"/>
	<line x1="124" y1="68" x2="124" y2="177" stroke="#d6604d" stroke-width="2"/>
	<g>
		<path d="M145 152 a14 14 90 0 1 14 14 V177 h-70 V166 a14 14 90 0 1 14 -14" fill="#f4a582" stroke="#f4a582" stroke-width="0"/>
		<path d="M159 177 v11 a14 14 90 0 1 -14 14 H103 a14 14 90 0 1 -14 -14 V177 H70" fill="#fddbc7" stroke="#fddbc7" stroke-width="0"/>
		<rect x="89" y="152" width="70" height="50" fill="none" rx="14" stroke="#d6604d" stroke-width="2"/>
		<line x1="89" y1="177" x2="159" y2="177" stroke="#d6604d" stroke-width="1"/>
		<text x="97" y="169.75" fill="#000000" font-family="Verdana" font-size="12">FAVORIS</text>
	</g>
	<text x="129" y="219" fill="#4d4d4d" font-family="Verdana" font-size="12">0,N</text>
	<text x="129" y="144" fill="#4d4d4d" font-family="Verdana" font-size="12">0,N</text>
</g>

<!-- Association CONTENIR -->
<g>
	<line x1="124" y1="278" x2="248" y2="177" stroke="#d6604d" stroke-width="2"/>
	<line x1="330" y1="68" x2="248" y2="177" stroke="#d6604d" stroke-width="2"/>
	<g>
		<path d="M274 152 a14 14 90 0 1 14 14 V177 h-80 V166 a14 14 90 0 1 14 -14" fill="#f4a582" stroke="#f4a582" stroke-width="0"/>
		<path d="M288 177 v11 a14 14 90 0 1 -14 14 H222 a14 14 90 0 1 -14 -14 V177 H80" fill="#fddbc7" stroke="#fddbc7" stroke-width="0"/>
		<rect x="208" y="152" width="80" height="50" fill="none" rx="14" stroke="#d6604d" stroke-width="2"/>
		<line x1="208" y1="177" x2="288" y2="177" stroke="#d6604d" stroke-width="1"/>
		<text x="216" y="169.75" fill="#000000" font-family="Verdana" font-size="12">CONTENIR</text>
	</g>
	<text x="174" y="252.29" fill="#4d4d4d" font-family="Verdana" font-size="12">0,N</text>
	<text x="297.73" y="127" fill="#4d4d4d" font-family="Verdana" font-size="12">1,N</text>
</g>

<!-- Association ETRE -->
<g>
	<line x1="330" y1="278" x2="248" y2="278" stroke="#d6604d" stroke-width="2"/>
	<line x1="124" y1="278" x2="248" y2="278" stroke="#d6604d" stroke-width="2"/>
	<g>
		<path d="M257 253 a14 14 90 0 1 14 14 V278 h-46 V267 a14 14 90 0 1 14 -14" fill="#f4a582" stroke="#f4a582" stroke-width="0"/>
		<path d="M271 278 v11 a14 14 90 0 1 -14 14 H239 a14 14 90 0 1 -14 -14 V278 H46" fill="#fddbc7" stroke="#fddbc7" stroke-width="0"/>
		<rect x="225" y="253" width="46" height="50" fill="none" rx="14" stroke="#d6604d" stroke-width="2"/>
		<line x1="225" y1="278" x2="271" y2="278" stroke="#d6604d" stroke-width="1"/>
		<text x="232" y="270.75" fill="#000000" font-family="Verdana" font-size="12">ETRE</text>
	</g>
	<text x="276" y="295" fill="#4d4d4d" font-family="Verdana" font-size="12">1,N</text>
	<text x="174" y="295" fill="#4d4d4d" font-family="Verdana" font-size="12">1,N</text>
</g>

<!-- Association COMPOSER -->
<g>
	<line x1="124" y1="463" x2="124" y2="379" stroke="#d6604d" stroke-width="2"/>
	<line x1="124" y1="278" x2="124" y2="379" stroke="#d6604d" stroke-width="2"/>
	<g>
		<path d="M152 354 a14 14 90 0 1 14 14 V379 h-84 V368 a14 14 90 0 1 14 -14" fill="#f4a582" stroke="#f4a582" stroke-width="0"/>
		<path d="M166 379 v11 a14 14 90 0 1 -14 14 H96 a14 14 90 0 1 -14 -14 V379 H84" fill="#fddbc7" stroke="#fddbc7" stroke-width="0"/>
		<rect x="82" y="354" width="84" height="50" fill="none" rx="14" stroke="#d6604d" stroke-width="2"/>
		<line x1="82" y1="379" x2="166" y2="379" stroke="#d6604d" stroke-width="1"/>
		<text x="89" y="371.75" fill="#000000" font-family="Verdana" font-size="12">COMPOSER</text>
	</g>
	<text x="97" y="421" fill="#4d4d4d" font-family="Verdana" font-size="12">1,N</text>
	<text x="98" y="346" fill="#4d4d4d" font-family="Verdana" font-size="12">1,1</text>
</g>

<!-- Association INTERPRETER -->
<g>
	<line x1="124" y1="463" x2="248" y2="379" stroke="#d6604d" stroke-width="2"/>
	<line x1="124" y1="278" x2="248" y2="379" stroke="#d6604d" stroke-width="2"/>
	<g>
		<path d="M284 354 a14 14 90 0 1 14 14 V379 h-100 V368 a14 14 90 0 1 14 -14" fill="#f4a582" stroke="#f4a582" stroke-width="0"/>
		<path d="M298 379 v11 a14 14 90 0 1 -14 14 H212 a14 14 90 0 1 -14 -14 V379 H100" fill="#fddbc7" stroke="#fddbc7" stroke-width="0"/>
		<rect x="198" y="354" width="100" height="50" fill="none" rx="14" stroke="#d6604d" stroke-width="2"/>
		<line x1="198" y1="379" x2="298" y2="379" stroke="#d6604d" stroke-width="1"/>
		<text x="206" y="371.75" fill="#000000" font-family="Verdana" font-size="12">INTERPRETER</text>
	</g>
	<text x="165" y="450.43" fill="#4d4d4d" font-family="Verdana" font-size="12">1,N</text>
	<text x="174" y="312.71" fill="#4d4d4d" font-family="Verdana" font-size="12">1,1</text>
</g>

<!-- Entity UTILISATEUR -->
<g>
	<g>
		<rect x="77" y="9" width="94" height="25" fill="#bababa" stroke="none" stroke-width="0" opacity="1"/>
		<rect x="77" y="34" width="94" height="93" fill="#e0e0e0" stroke="none" stroke-width="0" opacity="1"/>
		<rect x="77" y="9" width="94" height="118" fill="none" stroke="#878787" stroke-width="2" opacity="1"/>
		<line x1="77" y1="34" x2="171" y2="34" stroke="#878787" stroke-width="1"/>
	</g>
	<text x="83" y="26.75" fill="#000000" font-family="Verdana" font-size="12">UTILISATEUR</text>
	<text x="82" y="51.8" fill="#000000" font-family="Verdana" font-size="12">idU</text>
	<line x1="82" y1="54" x2="103" y2="54" stroke="#000000" stroke-width="1"/>
	<text x="82" y="68.8" fill="#000000" font-family="Verdana" font-size="12">isAdmin</text>
	<text x="82" y="85.8" fill="#000000" font-family="Verdana" font-size="12">pseudo</text>
	<text x="82" y="102.8" fill="#000000" font-family="Verdana" font-size="12">mdp</text>
	<text x="82" y="119.8" fill="#000000" font-family="Verdana" font-size="12">adresseMail</text>
</g>

<!-- Entity PLAYLIST -->
<g>
	<g>
		<rect x="290" y="26" width="80" height="25" fill="#bababa" stroke="none" stroke-width="0" opacity="1"/>
		<rect x="290" y="51" width="80" height="59" fill="#e0e0e0" stroke="none" stroke-width="0" opacity="1"/>
		<rect x="290" y="26" width="80" height="84" fill="none" stroke="#878787" stroke-width="2" opacity="1"/>
		<line x1="290" y1="51" x2="370" y2="51" stroke="#878787" stroke-width="1"/>
	</g>
	<text x="301" y="43.75" fill="#000000" font-family="Verdana" font-size="12">PLAYLIST</text>
	<text x="295" y="68.8" fill="#000000" font-family="Verdana" font-size="12">idPlaylist</text>
	<line x1="295" y1="71" x2="349" y2="71" stroke="#000000" stroke-width="1"/>
	<text x="295" y="85.8" fill="#000000" font-family="Verdana" font-size="12">idU</text>
	<text x="295" y="102.8" fill="#000000" font-family="Verdana" font-size="12">nomPlaylist</text>
</g>

<!-- Entity ALBUMS -->
<g>
	<g>
		<rect x="79" y="227" width="90" height="25" fill="#bababa" stroke="none" stroke-width="0" opacity="1"/>
		<rect x="79" y="252" width="90" height="77" fill="#e0e0e0" stroke="none" stroke-width="0" opacity="1"/>
		<rect x="79" y="227" width="90" height="102" fill="none" stroke="#878787" stroke-width="2" opacity="1"/>
		<line x1="79" y1="252" x2="169" y2="252" stroke="#878787" stroke-width="1"/>
	</g>
	<text x="99" y="244.75" fill="#000000" font-family="Verdana" font-size="12">ALBUMS</text>
	<text x="84" y="269.8" fill="#000000" font-family="Verdana" font-size="12">id</text>
	<line x1="84" y1="272" x2="96" y2="272" stroke="#000000" stroke-width="1"/>
	<text x="84" y="286.8" fill="#000000" font-family="Verdana" font-size="12">img</text>
	<text x="84" y="303.8" fill="#000000" font-family="Verdana" font-size="12">dateDeSortie</text>
	<text x="84" y="320.8" fill="#000000" font-family="Verdana" font-size="12">titre</text>
</g>

<!-- Entity GENRE -->
<g>
	<g>
		<rect x="303" y="244" width="54" height="25" fill="#bababa" stroke="none" stroke-width="0" opacity="1"/>
		<rect x="303" y="269" width="54" height="43" fill="#e0e0e0" stroke="none" stroke-width="0" opacity="1"/>
		<rect x="303" y="244" width="54" height="68" fill="none" stroke="#878787" stroke-width="2" opacity="1"/>
		<line x1="303" y1="269" x2="357" y2="269" stroke="#878787" stroke-width="1"/>
	</g>
	<text x="309" y="261.75" fill="#000000" font-family="Verdana" font-size="12">GENRE</text>
	<text x="308" y="286.8" fill="#000000" font-family="Verdana" font-size="12">idG</text>
	<line x1="308" y1="289" x2="329" y2="289" stroke="#000000" stroke-width="1"/>
	<text x="308" y="303.8" fill="#000000" font-family="Verdana" font-size="12">nomG</text>
</g>

<!-- Entity ARTISTES -->
<g>
	<g>
		<rect x="88" y="429" width="72" height="25" fill="#bababa" stroke="none" stroke-width="0" opacity="1"/>
		<rect x="88" y="454" width="72" height="43" fill="#e0e0e0" stroke="none" stroke-width="0" opacity="1"/>
		<rect x="88" y="429" width="72" height="68" fill="none" stroke="#878787" stroke-width="2" opacity="1"/>
		<line x1="88" y1="454" x2="160" y2="454" stroke="#878787" stroke-width="1"/>
	</g>
	<text x="94" y="446.75" fill="#000000" font-family="Verdana" font-size="12">ARTISTES</text>
	<text x="93" y="471.8" fill="#000000" font-family="Verdana" font-size="12">idA</text>
	<line x1="93" y1="474" x2="113" y2="474" stroke="#000000" stroke-width="1"/>
	<text x="93" y="488.8" fill="#000000" font-family="Verdana" font-size="12">nomA</text>
</g>
</svg>