<?xml version="1.0" encoding="utf-8"?>
<!-- Generated by Mocodo 4.2.1 -->
<svg width="420" height="506" viewBox="0 0 420 506" xmlns="http://www.w3.org/2000/svg">
<rect x="0" y="0" width="420" height="506" fill="#ffffff" stroke="none" stroke-width="0"/>

<!-- Association POSSEDER -->
<g>
	<line x1="371" y1="68" x2="258" y2="68" stroke="#d6604d" stroke-width="2"/>
	<line x1="134" y1="68" x2="258" y2="68" stroke="#d6604d" stroke-width="2"/>
	<g>
		<path d="M285 43 a14 14 90 0 1 14 14 V68 h-82 V57 a14 14 90 0 1 14 -14" fill="#f4a582" stroke="#f4a582" stroke-width="0"/>
		<path d="M299 68 v11 a14 14 90 0 1 -14 14 H231 a14 14 90 0 1 -14 -14 V68 H82" fill="#fddbc7" stroke="#fddbc7" stroke-width="0"/>
		<rect x="217" y="43" width="82" height="50" fill="none" rx="14" stroke="#d6604d" stroke-width="2"/>
		<line x1="217" y1="68" x2="299" y2="68" stroke="#d6604d" stroke-width="1"/>
		<text x="225" y="60.75" fill="#000000" font-family="Verdana" font-size="12">POSSEDER</text>
	</g>
	<text x="304" y="60" fill="#4d4d4d" font-family="Verdana" font-size="12">1,N</text>
	<text x="186" y="85" fill="#4d4d4d" font-family="Verdana" font-size="12">0,N</text>
</g>

<!-- Association NOTER -->
<g>
	<line x1="134" y1="278" x2="38" y2="177" stroke="#d6604d" stroke-width="2"/>
	<line x1="134" y1="68" x2="38" y2="177" stroke="#d6604d" stroke-width="2"/>
	<g>
		<path d="M53 152 a14 14 90 0 1 14 14 V177 h-58 V166 a14 14 90 0 1 14 -14" fill="#f4a582" stroke="#f4a582" stroke-width="0"/>
		<path d="M67 177 v11 a14 14 90 0 1 -14 14 H23 a14 14 90 0 1 -14 -14 V177 H58" fill="#fddbc7" stroke="#fddbc7" stroke-width="0"/>
		<rect x="9" y="152" width="58" height="50" fill="none" rx="14" stroke="#d6604d" stroke-width="2"/>
		<line x1="9" y1="177" x2="67" y2="177" stroke="#d6604d" stroke-width="1"/>
		<text x="17" y="169.75" fill="#000000" font-family="Verdana" font-size="12">NOTER</text>
		<text x="16" y="194.8" fill="#000000" font-family="Verdana" font-size="12">note</text>
	</g>
	<text x="62" y="240.84" fill="#4d4d4d" font-family="Verdana" font-size="12">0,N</text>
	<text x="60" y="119.8" fill="#4d4d4d" font-family="Verdana" font-size="12">0,N</text>
</g>

<!-- Association FAVORIS -->
<g>
	<line x1="134" y1="278" x2="134" y2="177" stroke="#d6604d" stroke-width="2"/>
	<line x1="134" y1="68" x2="134" y2="177" stroke="#d6604d" stroke-width="2"/>
	<g>
		<path d="M155 152 a14 14 90 0 1 14 14 V177 h-70 V166 a14 14 90 0 1 14 -14" fill="#f4a582" stroke="#f4a582" stroke-width="0"/>
		<path d="M169 177 v11 a14 14 90 0 1 -14 14 H113 a14 14 90 0 1 -14 -14 V177 H70" fill="#fddbc7" stroke="#fddbc7" stroke-width="0"/>
		<rect x="99" y="152" width="70" height="50" fill="none" rx="14" stroke="#d6604d" stroke-width="2"/>
		<line x1="99" y1="177" x2="169" y2="177" stroke="#d6604d" stroke-width="1"/>
		<text x="107" y="169.75" fill="#000000" font-family="Verdana" font-size="12">FAVORIS</text>
	</g>
	<text x="139" y="219" fill="#4d4d4d" font-family="Verdana" font-size="12">0,N</text>
	<text x="139" y="144" fill="#4d4d4d" font-family="Verdana" font-size="12">0,N</text>
</g>

<!-- Association CONTENIR -->
<g>
	<line x1="134" y1="278" x2="258" y2="177" stroke="#d6604d" stroke-width="2"/>
	<line x1="371" y1="68" x2="258" y2="177" stroke="#d6604d" stroke-width="2"/>
	<g>
		<path d="M284 152 a14 14 90 0 1 14 14 V177 h-80 V166 a14 14 90 0 1 14 -14" fill="#f4a582" stroke="#f4a582" stroke-width="0"/>
		<path d="M298 177 v11 a14 14 90 0 1 -14 14 H232 a14 14 90 0 1 -14 -14 V177 H80" fill="#fddbc7" stroke="#fddbc7" stroke-width="0"/>
		<rect x="218" y="152" width="80" height="50" fill="none" rx="14" stroke="#d6604d" stroke-width="2"/>
		<line x1="218" y1="177" x2="298" y2="177" stroke="#d6604d" stroke-width="1"/>
		<text x="226" y="169.75" fill="#000000" font-family="Verdana" font-size="12">CONTENIR</text>
	</g>
	<text x="184" y="252.29" fill="#4d4d4d" font-family="Verdana" font-size="12">0,N</text>
	<text x="333.86" y="119" fill="#4d4d4d" font-family="Verdana" font-size="12">1,N</text>
</g>

<!-- Association ETRE -->
<g>
	<line x1="371" y1="278" x2="258" y2="278" stroke="#d6604d" stroke-width="2"/>
	<line x1="134" y1="278" x2="258" y2="278" stroke="#d6604d" stroke-width="2"/>
	<g>
		<path d="M267 253 a14 14 90 0 1 14 14 V278 h-46 V267 a14 14 90 0 1 14 -14" fill="#f4a582" stroke="#f4a582" stroke-width="0"/>
		<path d="M281 278 v11 a14 14 90 0 1 -14 14 H249 a14 14 90 0 1 -14 -14 V278 H46" fill="#fddbc7" stroke="#fddbc7" stroke-width="0"/>
		<rect x="235" y="253" width="46" height="50" fill="none" rx="14" stroke="#d6604d" stroke-width="2"/>
		<line x1="235" y1="278" x2="281" y2="278" stroke="#d6604d" stroke-width="1"/>
		<text x="242" y="270.75" fill="#000000" font-family="Verdana" font-size="12">ETRE</text>
	</g>
	<text x="317" y="295" fill="#4d4d4d" font-family="Verdana" font-size="12">1,N</text>
	<text x="184" y="295" fill="#4d4d4d" font-family="Verdana" font-size="12">1,N</text>
</g>

<!-- Association COMPOSER -->
<g>
	<line x1="134" y1="463" x2="134" y2="379" stroke="#d6604d" stroke-width="2"/>
	<line x1="134" y1="278" x2="134" y2="379" stroke="#d6604d" stroke-width="2"/>
	<g>
		<path d="M162 354 a14 14 90 0 1 14 14 V379 h-84 V368 a14 14 90 0 1 14 -14" fill="#f4a582" stroke="#f4a582" stroke-width="0"/>
		<path d="M176 379 v11 a14 14 90 0 1 -14 14 H106 a14 14 90 0 1 -14 -14 V379 H84" fill="#fddbc7" stroke="#fddbc7" stroke-width="0"/>
		<rect x="92" y="354" width="84" height="50" fill="none" rx="14" stroke="#d6604d" stroke-width="2"/>
		<line x1="92" y1="379" x2="176" y2="379" stroke="#d6604d" stroke-width="1"/>
		<text x="99" y="371.75" fill="#000000" font-family="Verdana" font-size="12">COMPOSER</text>
	</g>
	<text x="107" y="421" fill="#4d4d4d" font-family="Verdana" font-size="12">1,N</text>
	<text x="108" y="346" fill="#4d4d4d" font-family="Verdana" font-size="12">1,1</text>
</g>

<!-- Association INTERPRETER -->
<g>
	<line x1="134" y1="463" x2="258" y2="379" stroke="#d6604d" stroke-width="2"/>
	<line x1="134" y1="278" x2="258" y2="379" stroke="#d6604d" stroke-width="2"/>
	<g>
		<path d="M294 354 a14 14 90 0 1 14 14 V379 h-100 V368 a14 14 90 0 1 14 -14" fill="#f4a582" stroke="#f4a582" stroke-width="0"/>
		<path d="M308 379 v11 a14 14 90 0 1 -14 14 H222 a14 14 90 0 1 -14 -14 V379 H100" fill="#fddbc7" stroke="#fddbc7" stroke-width="0"/>
		<rect x="208" y="354" width="100" height="50" fill="none" rx="14" stroke="#d6604d" stroke-width="2"/>
		<line x1="208" y1="379" x2="308" y2="379" stroke="#d6604d" stroke-width="1"/>
		<text x="216" y="371.75" fill="#000000" font-family="Verdana" font-size="12">INTERPRETER</text>
	</g>
	<text x="175" y="450.43" fill="#4d4d4d" font-family="Verdana" font-size="12">1,N</text>
	<text x="184" y="312.71" fill="#4d4d4d" font-family="Verdana" font-size="12">1,1</text>
</g>

<!-- Entity UTILISATEUR -->
<g>
	<g>
		<rect x="87" y="9" width="94" height="25" fill="#bababa" stroke="none" stroke-width="0" opacity="1"/>
		<rect x="87" y="34" width="94" height="93" fill="#e0e0e0" stroke="none" stroke-width="0" opacity="1"/>
		<rect x="87" y="9" width="94" height="118" fill="none" stroke="#878787" stroke-width="2" opacity="1"/>
		<line x1="87" y1="34" x2="181" y2="34" stroke="#878787" stroke-width="1"/>
	</g>
	<text x="93" y="26.75" fill="#000000" font-family="Verdana" font-size="12">UTILISATEUR</text>
	<text x="92" y="51.8" fill="#000000" font-family="Verdana" font-size="12">idU</text>
	<line x1="92" y1="54" x2="113" y2="54" stroke="#000000" stroke-width="1"/>
	<text x="92" y="68.8" fill="#000000" font-family="Verdana" font-size="12">isAdmin</text>
	<text x="92" y="85.8" fill="#000000" font-family="Verdana" font-size="12">pseudo</text>
	<text x="92" y="102.8" fill="#000000" font-family="Verdana" font-size="12">mdp</text>
	<text x="92" y="119.8" fill="#000000" font-family="Verdana" font-size="12">adresseMail</text>
</g>

<!-- Entity PLAYLIST -->
<g>
	<g>
		<rect x="331" y="34" width="80" height="25" fill="#bababa" stroke="none" stroke-width="0" opacity="1"/>
		<rect x="331" y="59" width="80" height="43" fill="#e0e0e0" stroke="none" stroke-width="0" opacity="1"/>
		<rect x="331" y="34" width="80" height="68" fill="none" stroke="#878787" stroke-width="2" opacity="1"/>
		<line x1="331" y1="59" x2="411" y2="59" stroke="#878787" stroke-width="1"/>
	</g>
	<text x="342" y="51.75" fill="#000000" font-family="Verdana" font-size="12">PLAYLIST</text>
	<text x="336" y="76.8" fill="#000000" font-family="Verdana" font-size="12">idPlaylist</text>
	<line x1="336" y1="79" x2="390" y2="79" stroke="#000000" stroke-width="1"/>
	<text x="336" y="93.8" fill="#000000" font-family="Verdana" font-size="12">nomPlaylist</text>
</g>

<!-- Entity ALBUMS -->
<g>
	<g>
		<rect x="89" y="227" width="90" height="25" fill="#bababa" stroke="none" stroke-width="0" opacity="1"/>
		<rect x="89" y="252" width="90" height="77" fill="#e0e0e0" stroke="none" stroke-width="0" opacity="1"/>
		<rect x="89" y="227" width="90" height="102" fill="none" stroke="#878787" stroke-width="2" opacity="1"/>
		<line x1="89" y1="252" x2="179" y2="252" stroke="#878787" stroke-width="1"/>
	</g>
	<text x="109" y="244.75" fill="#000000" font-family="Verdana" font-size="12">ALBUMS</text>
	<text x="94" y="269.8" fill="#000000" font-family="Verdana" font-size="12">id</text>
	<line x1="94" y1="272" x2="106" y2="272" stroke="#000000" stroke-width="1"/>
	<text x="94" y="286.8" fill="#000000" font-family="Verdana" font-size="12">img</text>
	<text x="94" y="303.8" fill="#000000" font-family="Verdana" font-size="12">dateDeSortie</text>
	<text x="94" y="320.8" fill="#000000" font-family="Verdana" font-size="12">titre</text>
</g>

<!-- Entity GENRE -->
<g>
	<g>
		<rect x="344" y="244" width="54" height="25" fill="#bababa" stroke="none" stroke-width="0" opacity="1"/>
		<rect x="344" y="269" width="54" height="43" fill="#e0e0e0" stroke="none" stroke-width="0" opacity="1"/>
		<rect x="344" y="244" width="54" height="68" fill="none" stroke="#878787" stroke-width="2" opacity="1"/>
		<line x1="344" y1="269" x2="398" y2="269" stroke="#878787" stroke-width="1"/>
	</g>
	<text x="350" y="261.75" fill="#000000" font-family="Verdana" font-size="12">GENRE</text>
	<text x="349" y="286.8" fill="#000000" font-family="Verdana" font-size="12">idG</text>
	<line x1="349" y1="289" x2="370" y2="289" stroke="#000000" stroke-width="1"/>
	<text x="349" y="303.8" fill="#000000" font-family="Verdana" font-size="12">nomG</text>
</g>

<!-- Entity ARTISTES -->
<g>
	<g>
		<rect x="98" y="429" width="72" height="25" fill="#bababa" stroke="none" stroke-width="0" opacity="1"/>
		<rect x="98" y="454" width="72" height="43" fill="#e0e0e0" stroke="none" stroke-width="0" opacity="1"/>
		<rect x="98" y="429" width="72" height="68" fill="none" stroke="#878787" stroke-width="2" opacity="1"/>
		<line x1="98" y1="454" x2="170" y2="454" stroke="#878787" stroke-width="1"/>
	</g>
	<text x="104" y="446.75" fill="#000000" font-family="Verdana" font-size="12">ARTISTES</text>
	<text x="103" y="471.8" fill="#000000" font-family="Verdana" font-size="12">idA</text>
	<line x1="103" y1="474" x2="123" y2="474" stroke="#000000" stroke-width="1"/>
	<text x="103" y="488.8" fill="#000000" font-family="Verdana" font-size="12">nomA</text>
</g>
</svg>